<?xml version="1.0" encoding="UTF-8" standalone="no"?>
<svg id="svg2" xmlns:rdf="http://www.w3.org/1999/02/22-rdf-syntax-ns#" xmlns="http://www.w3.org/2000/svg" xml:space="preserve" height="800" viewBox="0 0 1000 800" width="1e3" version="1.1" xmlns:cc="http://creativecommons.org/ns#" xmlns:dc="http://purl.org/dc/elements/1.1/"><defs id="defs6"><clipPath id="clipPath178" clipPathUnits="userSpaceOnUse"><path id="path180" d="m268.29 380.22h79.139v-51.33h-79.139v51.33z"/></clipPath><clipPath id="clipPath198" clipPathUnits="userSpaceOnUse"><path id="path200" d="m268.29 350.92h105.81v-50.121h-105.81v50.121z"/></clipPath><clipPath id="clipPath218" clipPathUnits="userSpaceOnUse"><path id="path220" d="m130.48 626.62h340.03v-295.63h-340.03v295.63z"/></clipPath><clipPath id="clipPath250" clipPathUnits="userSpaceOnUse"><path id="path252" d="m160.02 254.72h50.902v-68.332h-50.902v68.332z"/></clipPath><clipPath id="clipPath294" clipPathUnits="userSpaceOnUse"><path id="path296" d="m250.12 312.2h267.98v-126.45h-267.98v126.45z"/></clipPath><clipPath id="clipPath562" clipPathUnits="userSpaceOnUse"><path id="path564" d="m205.08 518.96h147.2v-83.975h-147.2v83.975z"/></clipPath><clipPath id="clipPath598" clipPathUnits="userSpaceOnUse"><path id="path600" d="m226.8 482.12h33.687v-31.914h-33.687v31.914z"/></clipPath><clipPath id="clipPath654" clipPathUnits="userSpaceOnUse"><path id="path656" d="m221.82 535.71h147.2v-83.975h-147.2v83.975z"/></clipPath><clipPath id="clipPath690" clipPathUnits="userSpaceOnUse"><path id="path692" d="m243.55 498.87h33.687v-31.914h-33.687v31.914z"/></clipPath><clipPath id="clipPath746" clipPathUnits="userSpaceOnUse"><path id="path748" d="m236.32 550.21h147.2v-83.975h-147.2v83.975z"/></clipPath><clipPath id="clipPath782" clipPathUnits="userSpaceOnUse"><path id="path784" d="m258.05 513.37h33.687v-31.914h-33.687v31.914z"/></clipPath></defs><g id="g10" transform="matrix(1.25,0,0,-1.25,0,800)"><g id="g5829" transform="matrix(.94811 0 0 .93602 68.242 .79225)"><g id="g14" transform="translate(546.56 236.37)"><path id="path16" d="m0 0 151.18-236.37h68.366l1.476 275.42-221.03-39.05z" fill="#b29a80"/></g><g id="g18" transform="translate(562.67 301.33)"><path id="path20" d="m0 0h-21.667l-13.333 22.334" fill-rule="evenodd" fill="#edb21d"/></g><g id="g154" transform="translate(551.22 429.1)"><path id="path156" d="m0 0-551.22-140.11v-101.4l114.55-122.73 655 210.98v27.641l-218.33 125.62z" fill-rule="evenodd" fill="#958275"/></g><g id="g158" transform="translate(551.3 456.54)"><path id="path160" d="m0 0-613.17-166.13 61.864-68.476 115.67-123.1 653.97 204.45z" fill-rule="evenodd" fill="#c3ae95"/></g><path id="path162" d="m117.36 217.77-177.53 48.31 1.695-184.72 173.28-197.46z" fill-rule="evenodd" fill="#c3ae95"/><g id="g164" transform="translate(129.67)"><path id="path166" d="m0-118.64-0.001 221.64l-14.666-4v-217.64z" fill-rule="evenodd" fill="#958275"/></g><path id="path168" d="m769.38 294.32h-14.666v-294.32h14.666v294.32z" fill-rule="evenodd" fill="#958275"/><g id="g170" transform="translate(0,222)"><path id="path172" d="m-60.169 67.797v-37l175.25-188.88 0.584 34.75z" fill-rule="evenodd" fill="#7a6c62"/></g><g id="g174"><g id="g182"><g id="g184" opacity="0.14" clip-path="url(#clipPath178)"><g id="g186" transform="translate(269 360.86)"><path id="path188" d="m0 0-0.71-31.967 76.957 21.877 2.182 29.453-78.429-19.363z" fill-rule="evenodd"/></g></g></g></g><g id="g190" transform="translate(273 362.86)"><path id="path192" d="m0 0-0.71-31.967 76.957 21.877 2.182 29.453-78.429-19.363z" fill-rule="evenodd" fill="#666"/></g><g id="g194"><g id="g202"><g id="g204" opacity="0.14" clip-path="url(#clipPath198)"><g id="g206" transform="translate(344.85 350.92)"><path id="path208" d="m0 0 24.642-18.387c7.001-5.224 5.891-11.576-2.468-14.114l-55.176-16.758c-8.359-2.538-19.953 0.722-25.764 7.244l-17.801 19.982"/></g></g></g></g><g id="g210" transform="translate(348.85 352.92)"><path id="path212" d="m0 0 24.642-18.387c7.001-5.224 5.891-11.576-2.468-14.114l-55.176-16.758c-8.359-2.538-19.953 0.722-25.764 7.244l-17.801 19.982" fill="#808080"/></g><g id="g214"><g id="g222"><g id="g224" opacity="0.14" clip-path="url(#clipPath218)"><g id="g226" transform="translate(130.58 571.94)"><path id="path228" d="m0 0c-0.975 8.681 5.323 16.649 13.995 17.707l302.31 36.859c8.671 1.057 16.027-5.22 16.346-13.951l7.264-198.74c0.319-8.73-6.396-17.433-14.92-19.34l-282.1-63.11c-8.525-1.907-16.297 3.635-17.272 12.317l-25.618 228.25z" fill-rule="evenodd"/></g></g></g></g><g id="g230" transform="translate(132.58 575.94)"><path id="path232" d="m0 0c-0.975 8.681 5.323 16.649 13.995 17.707l302.31 36.859c8.671 1.057 16.027-5.22 16.346-13.951l7.264-198.74c0.319-8.73-6.396-17.433-14.92-19.34l-282.1-63.11c-8.525-1.907-16.297 3.635-17.272 12.317l-25.618 228.25z" fill-rule="evenodd" fill="#959595"/></g><g id="g234" transform="translate(156.85 565.27)"><path id="path236" d="m0 0 279.18 36.821 10.69-180.86-266.2-53.19-23.67 197.23z" fill-rule="evenodd" fill="#fff"/></g><g id="g238" transform="translate(289.64 599.12)"><path id="path240" d="m0 0c0.124 2.629 2.354 4.66 4.983 4.536 2.63-0.123 4.66-2.355 4.536-4.984-0.123-2.629-2.355-4.659-4.984-4.535s-4.659 2.354-4.535 4.983" fill="#1a1a1a"/></g><g id="g242" transform="translate(217.04 345.23)"><path id="path244" d="m0 0c1.157-7.993 3.863-17.533-0.099-25.152-2.129-4.097-5.81-7.291-9.321-10.175-3.24-2.661-6.655-5.152-10.026-7.648-13.336-9.87-29.568-22.628-29.618-40.872-0.011-4.117 1.067-8.128 2.665-11.892 0.503-1.184 2.225-0.163 1.727 1.009-8.524 20.077 8.395 36.583 23.099 47.692 6.742 5.094 14.114 9.804 19.793 16.11 5.294 5.879 6.162 12.587 5.304 20.202-0.424 3.766-1.053 7.508-1.595 11.257-0.184 1.273-2.112 0.73-1.929-0.531" fill="#f4f7f9"/></g><g id="g246"><g id="g254"><g id="g256" opacity="0.14" clip-path="url(#clipPath250)"><g id="g258" transform="translate(210.03 214.37)"><path id="path260" d="m0 0c3.39-11.577-3.251-23.708-14.827-27.094s-23.706 3.252-27.094 14.826l-7.21 24.646c-3.388 11.573 3.25 23.707 14.828 27.091 11.574 3.388 23.706-3.248 27.092-14.824l7.211-24.645z"/></g><g id="g262" transform="translate(175.73 253.84)"><path id="path264" d="m0 0 8.407-27.322" stroke="#000" stroke-miterlimit="10" stroke-width="1.588" fill="none"/></g><g id="g266" transform="translate(185.82 224.52)"><path id="path268" d="m0 0c0.164-0.559-0.159-1.149-0.72-1.312-0.56-0.165-1.151 0.155-1.314 0.717l-0.597 2.032c-0.161 0.559 0.16 1.152 0.721 1.313 0.562 0.167 1.15-0.155 1.316-0.72l0.594-2.03z"/></g><g id="g270" transform="translate(184.23 234.37)"><path id="path272" d="m0 0c0.304-1.036-0.44-2.165-1.663-2.527-1.225-0.356-2.461 0.192-2.764 1.229l-3.065 10.474c-0.302 1.036 0.444 2.165 1.665 2.524 1.223 0.357 2.46-0.192 2.765-1.231l3.062-10.469z"/></g></g></g></g><g id="g274" transform="translate(206.03 216.37)"><path id="path276" d="m0 0c3.39-11.577-3.251-23.708-14.827-27.094s-23.706 3.252-27.094 14.826l-7.21 24.646c-3.388 11.573 3.25 23.707 14.828 27.091 11.574 3.388 23.706-3.248 27.092-14.824l7.211-24.645z" fill="#808080"/></g><g id="g278" transform="translate(171.73 255.84)"><path id="path280" d="m0 0 8.407-27.322" stroke="#4d4d4d" stroke-miterlimit="10" stroke-width="1.588" fill="none"/></g><g id="g282" transform="translate(181.82 226.52)"><path id="path284" d="m0 0c0.164-0.559-0.159-1.149-0.72-1.312-0.56-0.165-1.151 0.155-1.314 0.717l-0.597 2.032c-0.161 0.559 0.16 1.152 0.721 1.313 0.562 0.167 1.15-0.155 1.316-0.72l0.594-2.03z" fill="#f53937"/></g><g id="g286" transform="translate(180.23 236.37)"><path id="path288" d="m0 0c0.304-1.036-0.44-2.165-1.663-2.527-1.225-0.356-2.461 0.192-2.764 1.229l-3.065 10.474c-0.302 1.036 0.444 2.165 1.665 2.524 1.223 0.357 2.46-0.192 2.765-1.231l3.062-10.469z" fill="#4d4d4d"/></g><g id="g290"><g id="g298"><g id="g300" opacity="0.14" clip-path="url(#clipPath294)"><g id="g302" transform="translate(310,185.75)"><path id="path304" d="m0 0 208.1 70.978-68.677 55.469-199.3-58.072v-7.625l59.88-60.753z" fill-rule="evenodd"/></g></g></g></g><g id="g306" transform="translate(312,189.75)"><path id="path308" d="m0 0 208.1 70.978-68.677 55.469-199.3-58.072v-7.625l59.88-60.753z" fill-rule="evenodd" fill="#666"/></g><g id="g310" transform="translate(313.43 197.55)"><path id="path312" d="m0 0 208.67 68.676-68.68 55.464-201.4-63.388 61.41-60.752z" fill-rule="evenodd" fill="#808080"/></g><g id="g314" transform="translate(286.29 250.74)"><path id="path316" d="m0 0 18.02 5.475-6.746 5.452-17.292-5.558 6.018-5.369z" fill-rule="evenodd" fill="#666"/></g><g id="g318" transform="translate(306.45 257.12)"><path id="path320" d="m0 0 10.552 3.34-7.501 5.249-9.794-3.091 6.743-5.498z" fill-rule="evenodd" fill="#666"/></g><g id="g322" transform="translate(318.67 261.08)"><path id="path324" d="m0 0 10.552 3.341-7.502 5.249-9.793-3.092 6.743-5.498z" fill-rule="evenodd" fill="#666"/></g><g id="g326" transform="translate(331.21 264.87)"><path id="path328" d="m0 0 10.553 3.342-7.502 5.249-9.793-3.093 6.742-5.498z" fill-rule="evenodd" fill="#666"/></g><g id="g330" transform="translate(343.27 268.84)"><path id="path332" d="m0 0 10.552 3.339-7.501 5.25-9.794-3.091 6.743-5.498z" fill-rule="evenodd" fill="#666"/></g><g id="g334" transform="translate(355.48 272.96)"><path id="path336" d="m0 0 10.552 3.341-7.502 5.248-9.794-3.091 6.744-5.498z" fill-rule="evenodd" fill="#666"/></g><g id="g338" transform="translate(367.7 276.93)"><path id="path340" d="m0 0 10.552 3.341-7.501 5.249-9.793-3.092 6.742-5.498z" fill-rule="evenodd" fill="#666"/></g><g id="g342" transform="translate(380.25 280.72)"><path id="path344" d="m0 0 10.552 3.34-7.501 5.249-9.794-3.091 6.743-5.498z" fill-rule="evenodd" fill="#666"/></g><g id="g346" transform="translate(392.3 284.68)"><path id="path348" d="m0 0 10.551 3.341-7.5 5.249-9.795-3.092 6.744-5.498z" fill-rule="evenodd" fill="#666"/></g><g id="g350" transform="translate(404.51 288.98)"><path id="path352" d="m0 0 10.552 3.34-7.502 5.249-9.793-3.091 6.743-5.498z" fill-rule="evenodd" fill="#666"/></g><g id="g354" transform="translate(416.73 292.94)"><path id="path356" d="m0 0 10.553 3.341-7.501 5.25-9.794-3.092 6.742-5.499z" fill-rule="evenodd" fill="#666"/></g><g id="g358" transform="translate(429.28 296.74)"><path id="path360" d="m0 0 10.552 3.342-7.501 5.249-9.793-3.093 6.742-5.498z" fill-rule="evenodd" fill="#666"/></g><g id="g362" transform="translate(441.33 300.7)"><path id="path364" d="m0 0 10.553 3.34-7.502 5.249-9.794-3.091 6.743-5.498z" fill-rule="evenodd" fill="#666"/></g><g id="g366" transform="translate(295.31 242.16)"><path id="path368" d="m0 0 18.02 5.474-6.745 5.453-17.292-5.559 6.017-5.368z" fill-rule="evenodd" fill="#666"/></g><g id="g370" transform="translate(315.48 248.53)"><path id="path372" d="m0 0 10.552 3.34-7.501 5.249-9.793-3.091 6.742-5.498z" fill-rule="evenodd" fill="#666"/></g><g id="g374" transform="translate(327.69 252.49)"><path id="path376" d="m0 0 10.552 3.342-7.501 5.249-9.794-3.093 6.743-5.498z" fill-rule="evenodd" fill="#666"/></g><g id="g378" transform="translate(340.24 256.29)"><path id="path380" d="m0 0 10.552 3.342-7.5 5.25-9.795-3.094 6.743-5.498z" fill-rule="evenodd" fill="#666"/></g><g id="g382" transform="translate(352.29 260.25)"><path id="path384" d="m0 0 10.552 3.34-7.502 5.249-9.793-3.091 6.743-5.498z" fill-rule="evenodd" fill="#666"/></g><g id="g386" transform="translate(364.51 264.38)"><path id="path388" d="m0 0 10.553 3.341-7.502 5.25-9.793-3.091 6.742-5.5z" fill-rule="evenodd" fill="#666"/></g><g id="g390" transform="translate(376.72 268.34)"><path id="path392" d="m0 0 10.552 3.34-7.501 5.249-9.793-3.091 6.742-5.498z" fill-rule="evenodd" fill="#666"/></g><g id="g394" transform="translate(389.27 272.14)"><path id="path396" d="m0 0 10.552 3.34-7.501 5.249-9.794-3.091 6.743-5.498z" fill-rule="evenodd" fill="#666"/></g><g id="g398" transform="translate(401.32 276.1)"><path id="path400" d="m0 0 10.553 3.341-7.502 5.25-9.794-3.094 6.743-5.497z" fill-rule="evenodd" fill="#666"/></g><g id="g402" transform="translate(413.54 280.39)"><path id="path404" d="m0 0 10.552 3.34-7.501 5.249-9.794-3.091 6.743-5.498z" fill-rule="evenodd" fill="#666"/></g><g id="g406" transform="translate(425.75 284.35)"><path id="path408" d="m0 0 10.552 3.342-7.5 5.249-9.794-3.093 6.742-5.498z" fill-rule="evenodd" fill="#666"/></g><g id="g410" transform="translate(438.3 288.15)"><path id="path412" d="m0 0 10.552 3.341-7.501 5.249-9.794-3.093 6.743-5.497z" fill-rule="evenodd" fill="#666"/></g><g id="g414" transform="translate(450.35 292.11)"><path id="path416" d="m0 0 10.553 3.34-7.501 5.249-9.794-3.091 6.742-5.498z" fill-rule="evenodd" fill="#666"/></g><g id="g418" transform="translate(303.9 233.13)"><path id="path420" d="m0 0 18.02 5.476-6.746 5.453-17.292-5.56 6.018-5.369z" fill-rule="evenodd" fill="#666"/></g><g id="g422" transform="translate(324.06 239.51)"><path id="path424" d="m0 0 10.552 3.341-7.501 5.248-9.794-3.091 6.743-5.498z" fill-rule="evenodd" fill="#666"/></g><g id="g426" transform="translate(336.28 243.47)"><path id="path428" d="m0 0 10.552 3.34-7.501 5.249-9.794-3.091 6.743-5.498z" fill-rule="evenodd" fill="#666"/></g><g id="g430" transform="translate(348.82 247.27)"><path id="path432" d="m0 0 10.552 3.34-7.501 5.25-9.794-3.091 6.743-5.499z" fill-rule="evenodd" fill="#666"/></g><g id="g434" transform="translate(360.88 251.23)"><path id="path436" d="m0 0 10.552 3.341-7.502 5.249-9.794-3.092 6.744-5.498z" fill-rule="evenodd" fill="#666"/></g><g id="g438" transform="translate(373.09 255.35)"><path id="path440" d="m0 0 10.552 3.341-7.501 5.25-9.794-3.092 6.743-5.499z" fill-rule="evenodd" fill="#666"/></g><g id="g442" transform="translate(385.31 259.32)"><path id="path444" d="m0 0 10.552 3.34-7.501 5.249-9.795-3.091 6.744-5.498z" fill-rule="evenodd" fill="#666"/></g><g id="g446" transform="translate(397.85 263.11)"><path id="path448" d="m0 0 10.552 3.34-7.501 5.249-9.794-3.091 6.743-5.498z" fill-rule="evenodd" fill="#666"/></g><g id="g450" transform="translate(409.91 267.08)"><path id="path452" d="m0 0 10.553 3.342-7.502 5.25-9.793-3.093 6.742-5.499z" fill-rule="evenodd" fill="#666"/></g><g id="g454" transform="translate(422.12 271.37)"><path id="path456" d="m0 0 10.552 3.341-7.5 5.249-9.794-3.091 6.742-5.499z" fill-rule="evenodd" fill="#666"/></g><g id="g458" transform="translate(434.34 275.33)"><path id="path460" d="m0 0 10.553 3.34-7.502 5.249-9.794-3.091 6.743-5.498z" fill-rule="evenodd" fill="#666"/></g><g id="g462" transform="translate(446.88 279.13)"><path id="path464" d="m0 0 10.553 3.34-7.501 5.249-9.794-3.091 6.742-5.498z" fill-rule="evenodd" fill="#666"/></g><g id="g466" transform="translate(458.94 283.09)"><path id="path468" d="m0 0 10.552 3.341-7.5 5.249-9.794-3.092 6.742-5.498z" fill-rule="evenodd" fill="#666"/></g><g id="g470" transform="translate(314.68 224.33)"><path id="path472" d="m0 0 18.02 5.476-6.746 5.452-17.293-5.56 6.019-5.368z" fill-rule="evenodd" fill="#666"/></g><g id="g474" transform="translate(334.85 230.7)"><path id="path476" d="m0 0 10.552 3.341-7.501 5.249-9.794-3.092 6.743-5.498z" fill-rule="evenodd" fill="#666"/></g><g id="g478" transform="translate(347.06 234.66)"><path id="path480" d="m0 0 10.552 3.341-7.501 5.25-9.794-3.092 6.743-5.499z" fill-rule="evenodd" fill="#666"/></g><g id="g482" transform="translate(359.61 238.46)"><path id="path484" d="m0 0 10.552 3.341-7.502 5.25-9.793-3.092 6.743-5.499z" fill-rule="evenodd" fill="#666"/></g><g id="g486" transform="translate(371.66 242.42)"><path id="path488" d="m0 0 10.553 3.341-7.502 5.248-9.793-3.091 6.742-5.498z" fill-rule="evenodd" fill="#666"/></g><g id="g490" transform="translate(383.88 246.55)"><path id="path492" d="m0 0 10.552 3.34-7.501 5.249-9.794-3.091 6.743-5.498z" fill-rule="evenodd" fill="#666"/></g><g id="g494" transform="translate(396.09 250.51)"><path id="path496" d="m0 0 10.552 3.34-7.502 5.249-9.794-3.091 6.744-5.498z" fill-rule="evenodd" fill="#666"/></g><g id="g498" transform="translate(408.64 254.31)"><path id="path500" d="m0 0 10.553 3.341-7.501 5.248-9.794-3.091 6.742-5.498z" fill-rule="evenodd" fill="#666"/></g><g id="g502" transform="translate(420.69 258.27)"><path id="path504" d="m0 0 10.552 3.339-7.501 5.25-9.793-3.092 6.742-5.497z" fill-rule="evenodd" fill="#666"/></g><g id="g506" transform="translate(432.91 262.56)"><path id="path508" d="m0 0 10.552 3.341-7.501 5.25-9.794-3.091 6.743-5.5z" fill-rule="evenodd" fill="#666"/></g><g id="g510" transform="translate(445.12 266.53)"><path id="path512" d="m0 0 10.553 3.341-7.501 5.249-9.794-3.092 6.742-5.498z" fill-rule="evenodd" fill="#666"/></g><g id="g514" transform="translate(457.67 270.32)"><path id="path516" d="m0 0 10.551 3.341-7.5 5.249-9.795-3.092 6.744-5.498z" fill-rule="evenodd" fill="#666"/></g><g id="g518" transform="translate(469.72 274.28)"><path id="path520" d="m0 0 10.552 3.341-7.501 5.25-9.793-3.092 6.742-5.499z" fill-rule="evenodd" fill="#666"/></g><g id="g522" transform="translate(324.04 214.97)"><path id="path524" d="m0 0 18.019 5.474-6.746 5.453-17.291-5.559 6.018-5.368z" fill-rule="evenodd" fill="#666"/></g><g id="g526" transform="translate(344.2 221.35)"><path id="path528" d="m0 0 10.552 3.339-7.501 5.25-9.794-3.092 6.743-5.497z" fill-rule="evenodd" fill="#666"/></g><g id="g530" transform="translate(356.42 225.31)"><path id="path532" d="m0 0 10.552 3.341-7.501 5.249-9.794-3.092 6.743-5.498z" fill-rule="evenodd" fill="#666"/></g><g id="g534" transform="translate(368.96 229.1)"><path id="path536" d="m0 0 10.553 3.341-7.502 5.249-9.793-3.092 6.742-5.498z" fill-rule="evenodd" fill="#666"/></g><g id="g538" transform="translate(381.29 233.07)"><path id="path540" d="m0 0 59.371 19.292-6.385 5.284-59.729-19.077 6.743-5.499z" fill-rule="evenodd" fill="#666"/></g><g id="g542" transform="translate(442.26 253.21)"><path id="path544" d="m0 0 10.551 3.34-7.5 5.249-9.794-3.092 6.743-5.497z" fill-rule="evenodd" fill="#666"/></g><g id="g546" transform="translate(454.48 257.17)"><path id="path548" d="m0 0 10.552 3.341-7.501 5.25-9.793-3.092 6.742-5.499z" fill-rule="evenodd" fill="#666"/></g><g id="g550" transform="translate(467.03 260.97)"><path id="path552" d="m0 0 10.552 3.341-7.501 5.25-9.794-3.091 6.743-5.5z" fill-rule="evenodd" fill="#666"/></g><g id="g554" transform="translate(479.08 264.93)"><path id="path556" d="m0 0 10.554 3.341-7.502 5.249-9.794-3.092 6.742-5.498z" fill-rule="evenodd" fill="#666"/></g><g id="g558"><g id="g566"><g id="g568" opacity="0.14" clip-path="url(#clipPath562)"><g id="g570" transform="translate(214.83 434.98)"><path id="path572" d="m0 0 137.44 21.187-8.35 54.228-137.45-21.188 8.36-54.227z"/></g><g id="g574" transform="translate(342.82 518.96)"><path id="path576" d="m0 0-137.74-21.233 1.479-9.59 0.085 0.012l137.45 21.188 0.208 0.033-1.478 9.59z"/></g></g></g></g><g id="g578" transform="translate(216.9 437.05)"><path id="path580" d="m0 0 137.44 21.187-8.35 54.228-137.45-21.187 8.36-54.228z" fill="#e2e2e2"/></g><g id="g582" transform="translate(344.89 521.03)"><path id="path584" d="m0 0-137.74-21.233 1.479-9.59 0.085 0.012l137.45 21.188 0.208 0.033-1.478 9.59z" fill="#a1d6db"/></g><g id="g586" transform="translate(345.71 515.7)"><path id="path588" d="m0 0-11.618-1.791-0.821 5.33 11.617 1.791 0.822-5.33z" fill-rule="evenodd" fill="#f53937"/></g><g id="g590" transform="translate(338.64 515.67)"><path id="path592" d="m0 0-0.765-0.118 1.407 1.921-1.804 1.34 0.795 0.122 1.377-1.059 0.985 1.424 0.755 0.116-1.314-1.82 1.891-1.413-0.787-0.121-1.458 1.14-1.082-1.532z" fill="#eee"/></g><g id="g594"><g id="g602"><g id="g604" opacity="0.14" clip-path="url(#clipPath598)"><g id="g606" transform="translate(238.27 481.14)"><path id="path608" d="m0 0c0.45 1.158 1.455 1.313 2.233 0.344l8.374-10.429c0.778-0.969 2.051-2.554 2.829-3.523l8.373-10.427c0.778-0.969 0.41-1.917-0.818-2.106l-13.218-2.038c-1.228-0.189-3.237-0.499-4.465-0.688l-13.219-2.038c-1.228-0.189-1.864 0.604-1.414 1.762l4.845 12.465c0.45 1.158 1.186 3.053 1.637 4.212l4.843 12.466z" fill-rule="evenodd"/></g></g></g></g><g id="g610" transform="translate(235.16 483.21)"><path id="path612" d="m0 0c0.45 1.158 1.455 1.314 2.233 0.344l8.374-10.428c0.778-0.97 2.051-2.555 2.829-3.524l8.374-10.427c0.777-0.969 0.409-1.917-0.819-2.106l-13.218-2.038c-1.228-0.189-3.237-0.499-4.465-0.688l-13.219-2.038c-1.228-0.189-1.864 0.604-1.414 1.762l4.845 12.465c0.45 1.158 1.186 3.054 1.637 4.212l4.843 12.466z" fill-rule="evenodd" fill="#f7d323"/></g><g id="g614" transform="translate(236.03 475.69)"><path id="path616" d="m0 0c0.201 0.064 0.399 0.118 0.594 0.165 0.196 0.046 0.398 0.084 0.603 0.117 0.221 0.034 0.444 0.06 0.669 0.079 0.223 0.018 0.45 0.028 0.676 0.031l1.7-11.973c-0.354-0.119-0.722-0.209-1.102-0.267-0.428-0.067-0.806-0.092-1.131-0.078l-2.009 11.926zm2.537-17.098c-0.065 0.217-0.122 0.431-0.17 0.642-0.05 0.212-0.09 0.428-0.125 0.651-0.034 0.22-0.061 0.447-0.081 0.68-0.019 0.232-0.031 0.461-0.034 0.689 0.218 0.065 0.432 0.123 0.643 0.17 0.211 0.05 0.428 0.092 0.65 0.126s0.449 0.06 0.68 0.079c0.233 0.021 0.462 0.032 0.689 0.035 0.065-0.218 0.124-0.435 0.174-0.655 0.05-0.219 0.093-0.44 0.126-0.662 0.035-0.221 0.061-0.445 0.079-0.668 0.018-0.225 0.028-0.45 0.032-0.676-0.218-0.066-0.436-0.125-0.655-0.175-0.22-0.049-0.44-0.091-0.661-0.125-0.222-0.035-0.446-0.061-0.67-0.08-0.223-0.018-0.449-0.028-0.677-0.031" fill="#333"/></g><g id="g618" transform="translate(264.61 488.47)"><path id="path620" d="m0 0 48.947 7.545" stroke="#333" stroke-miterlimit="10" stroke-width=".449" fill="none"/></g><g id="g622" transform="translate(265.36 483.58)"><path id="path624" d="m0 0 71.622 11.04" stroke="#333" stroke-miterlimit="10" stroke-width=".449" fill="none"/></g><g id="g626" transform="translate(266.03 479.24)"><path id="path628" d="m0 0 71.623 11.04" stroke="#333" stroke-miterlimit="10" stroke-width=".449" fill="none"/></g><g id="g630" transform="translate(266.7 474.9)"><path id="path632" d="m0 0 71.622 11.041" stroke="#333" stroke-miterlimit="10" stroke-width=".449" fill="none"/></g><g id="g634" transform="translate(267.37 470.56)"><path id="path636" d="m0 0 71.622 11.041" stroke="#333" stroke-miterlimit="10" stroke-width=".449" fill="none"/></g><g id="g638" transform="translate(268.04 466.21)"><path id="path640" d="m0 0 71.622 11.04" stroke="#333" stroke-miterlimit="10" stroke-width=".449" fill="none"/></g><g id="g642" transform="translate(290.2 456.8)"><path id="path644" d="m0 0-19.819-2.927-1.096 7.426 19.818 2.926 1.097-7.425z" fill-rule="evenodd" fill="#b8bcbc"/></g><g id="g646" transform="translate(313.67 460.25)"><path id="path648" d="m0 0-19.819-2.927-1.096 7.426 19.818 2.926 1.097-7.425z" fill-rule="evenodd" fill="#b8bcbc"/></g><g id="g650"><g id="g658"><g id="g660" opacity="0.14" clip-path="url(#clipPath654)"><g id="g662" transform="translate(231.58 451.73)"><path id="path664" d="m0 0 137.44 21.187-8.35 54.228-137.45-21.188 8.36-54.227z"/></g><g id="g666" transform="translate(359.57 535.71)"><path id="path668" d="m0 0-137.74-21.233 1.479-9.59 0.085 0.012l137.45 21.188 0.208 0.033-1.478 9.59z"/></g></g></g></g><g id="g670" transform="translate(233.65 453.8)"><path id="path672" d="m0 0 137.44 21.187-8.35 54.228-137.45-21.187 8.36-54.228z" fill="#e2e2e2"/></g><g id="g674" transform="translate(361.64 537.78)"><path id="path676" d="m0 0-137.74-21.233 1.479-9.59 0.085 0.012l137.45 21.189 0.208 0.032-1.478 9.59z" fill="#a1d6db"/></g><g id="g678" transform="translate(362.46 532.45)"><path id="path680" d="m0 0-11.618-1.791-0.821 5.33 11.617 1.791 0.822-5.33z" fill-rule="evenodd" fill="#f53937"/></g><g id="g682" transform="translate(355.39 532.42)"><path id="path684" d="m0 0-0.765-0.118 1.407 1.921-1.804 1.34 0.795 0.122 1.377-1.059 0.985 1.424 0.755 0.116-1.314-1.82 1.891-1.413-0.787-0.121-1.458 1.14-1.082-1.532z" fill="#eee"/></g><g id="g686"><g id="g694"><g id="g696" opacity="0.14" clip-path="url(#clipPath690)"><g id="g698" transform="translate(255.02 497.89)"><path id="path700" d="m0 0c0.45 1.158 1.455 1.313 2.233 0.344l8.374-10.429c0.778-0.969 2.051-2.554 2.829-3.523l8.373-10.427c0.778-0.969 0.41-1.917-0.818-2.106l-13.218-2.038c-1.228-0.189-3.237-0.499-4.465-0.688l-13.219-2.038c-1.228-0.189-1.864 0.604-1.414 1.762l4.845 12.465c0.45 1.158 1.186 3.053 1.637 4.212l4.843 12.466z" fill-rule="evenodd"/></g></g></g></g><g id="g702" transform="translate(251.91 499.96)"><path id="path704" d="m0 0c0.45 1.158 1.455 1.314 2.233 0.344l8.374-10.428c0.778-0.97 2.051-2.555 2.829-3.524l8.374-10.427c0.777-0.969 0.409-1.917-0.819-2.106l-13.218-2.038c-1.228-0.189-3.237-0.499-4.465-0.688l-13.219-2.038c-1.228-0.189-1.864 0.604-1.414 1.762l4.845 12.465c0.45 1.158 1.186 3.054 1.637 4.212l4.843 12.466z" fill-rule="evenodd" fill="#f7d323"/></g><g id="g706" transform="translate(252.78 492.44)"><path id="path708" d="m0 0c0.201 0.064 0.399 0.118 0.594 0.165 0.196 0.046 0.398 0.084 0.603 0.117 0.221 0.034 0.444 0.06 0.669 0.079 0.223 0.018 0.45 0.028 0.676 0.031l1.7-11.973c-0.354-0.119-0.722-0.209-1.102-0.267-0.428-0.067-0.806-0.092-1.131-0.078l-2.009 11.926zm2.537-17.098c-0.065 0.217-0.122 0.431-0.17 0.642-0.05 0.212-0.09 0.428-0.125 0.651-0.034 0.22-0.061 0.447-0.081 0.68-0.019 0.232-0.031 0.461-0.034 0.689 0.218 0.065 0.432 0.123 0.643 0.17 0.211 0.05 0.428 0.092 0.65 0.126s0.449 0.06 0.681 0.079c0.232 0.021 0.461 0.032 0.688 0.035 0.065-0.218 0.124-0.435 0.174-0.655 0.05-0.219 0.093-0.44 0.126-0.662 0.034-0.221 0.061-0.445 0.079-0.668 0.019-0.225 0.028-0.45 0.032-0.676-0.218-0.066-0.436-0.125-0.655-0.175-0.22-0.049-0.44-0.091-0.661-0.125-0.222-0.035-0.446-0.061-0.67-0.08-0.223-0.018-0.449-0.028-0.677-0.031" fill="#333"/></g><g id="g710" transform="translate(281.36 505.22)"><path id="path712" d="m0 0 48.947 7.545" stroke="#333" stroke-miterlimit="10" stroke-width=".449" fill="none"/></g><g id="g714" transform="translate(282.11 500.33)"><path id="path716" d="m0 0 71.622 11.04" stroke="#333" stroke-miterlimit="10" stroke-width=".449" fill="none"/></g><g id="g718" transform="translate(282.78 495.99)"><path id="path720" d="m0 0 71.623 11.04" stroke="#333" stroke-miterlimit="10" stroke-width=".449" fill="none"/></g><g id="g722" transform="translate(283.45 491.65)"><path id="path724" d="m0 0 71.622 11.041" stroke="#333" stroke-miterlimit="10" stroke-width=".449" fill="none"/></g><g id="g726" transform="translate(284.12 487.31)"><path id="path728" d="m0 0 71.622 11.041" stroke="#333" stroke-miterlimit="10" stroke-width=".449" fill="none"/></g><g id="g730" transform="translate(284.79 482.96)"><path id="path732" d="m0 0 71.622 11.04" stroke="#333" stroke-miterlimit="10" stroke-width=".449" fill="none"/></g><g id="g734" transform="translate(306.95 473.55)"><path id="path736" d="m0 0-19.819-2.927-1.096 7.426 19.818 2.926 1.097-7.425z" fill-rule="evenodd" fill="#b8bcbc"/></g><g id="g738" transform="translate(330.42 477)"><path id="path740" d="m0 0-19.819-2.927-1.096 7.426 19.818 2.926 1.097-7.425z" fill-rule="evenodd" fill="#b8bcbc"/></g><g id="g742"><g id="g750"><g id="g752" opacity="0.14" clip-path="url(#clipPath746)"><g id="g754" transform="translate(246.08 466.23)"><path id="path756" d="m0 0 137.44 21.187-8.35 54.228-137.45-21.188 8.36-54.227z"/></g><g id="g758" transform="translate(374.07 550.21)"><path id="path760" d="m0 0-137.74-21.233 1.479-9.59 0.085 0.013l137.45 21.187 0.208 0.033-1.478 9.59z"/></g></g></g></g><g id="g762" transform="translate(248.15 468.3)"><path id="path764" d="m0 0 137.44 21.187-8.35 54.228-137.45-21.187 8.36-54.228z" fill="#e2e2e2"/></g><g id="g766" transform="translate(376.14 552.28)"><path id="path768" d="m0 0-137.74-21.233 1.479-9.59 0.085 0.012l137.45 21.189 0.208 0.032-1.478 9.59z" fill="#a1d6db"/></g><g id="g770" transform="translate(376.96 546.95)"><path id="path772" d="m0 0-11.618-1.791-0.821 5.33 11.617 1.791 0.822-5.33z" fill-rule="evenodd" fill="#f53937"/></g><g id="g774" transform="translate(369.89 546.92)"><path id="path776" d="m0 0-0.765-0.118 1.407 1.921-1.804 1.34 0.795 0.122 1.377-1.059 0.985 1.424 0.755 0.116-1.314-1.82 1.891-1.413-0.787-0.121-1.458 1.14-1.082-1.532z" fill="#eee"/></g><g id="g778"><g id="g786"><g id="g788" opacity="0.14" clip-path="url(#clipPath782)"><g id="g790" transform="translate(269.52 512.39)"><path id="path792" d="m0 0c0.45 1.158 1.455 1.313 2.233 0.344l8.374-10.429c0.778-0.969 2.051-2.554 2.829-3.523l8.374-10.427c0.777-0.969 0.409-1.917-0.819-2.106l-13.218-2.038c-1.228-0.189-3.237-0.499-4.465-0.688l-13.219-2.038c-1.228-0.189-1.864 0.604-1.414 1.762l4.845 12.465c0.45 1.158 1.187 3.053 1.637 4.212l4.843 12.466z" fill-rule="evenodd"/></g></g></g></g><g id="g794" transform="translate(266.41 514.46)"><path id="path796" d="m0 0c0.45 1.158 1.455 1.313 2.233 0.344l8.374-10.428c0.778-0.97 2.051-2.555 2.829-3.524l8.374-10.427c0.777-0.969 0.409-1.917-0.819-2.106l-13.218-2.038c-1.228-0.189-3.237-0.499-4.465-0.688l-13.219-2.038c-1.228-0.189-1.864 0.604-1.414 1.762l4.845 12.465c0.45 1.158 1.186 3.053 1.637 4.212l4.843 12.466z" fill-rule="evenodd" fill="#f7d323"/></g><g id="g798" transform="translate(267.28 506.94)"><path id="path800" d="m0 0c0.201 0.064 0.399 0.118 0.594 0.165 0.196 0.046 0.398 0.084 0.603 0.117 0.221 0.034 0.444 0.06 0.669 0.079 0.223 0.018 0.45 0.028 0.676 0.031l1.7-11.973c-0.354-0.119-0.722-0.209-1.102-0.267-0.428-0.067-0.806-0.092-1.131-0.078l-2.009 11.926zm2.538-17.098c-0.066 0.217-0.123 0.431-0.171 0.642-0.05 0.212-0.09 0.428-0.125 0.651-0.034 0.22-0.061 0.447-0.081 0.68-0.019 0.232-0.031 0.461-0.034 0.689 0.218 0.065 0.432 0.123 0.644 0.17 0.21 0.05 0.427 0.092 0.649 0.126s0.449 0.06 0.681 0.079c0.232 0.021 0.461 0.032 0.688 0.035 0.065-0.218 0.124-0.435 0.174-0.655 0.05-0.219 0.093-0.44 0.126-0.662 0.035-0.221 0.061-0.445 0.079-0.668 0.019-0.225 0.028-0.45 0.032-0.676-0.218-0.066-0.436-0.125-0.655-0.175-0.22-0.049-0.44-0.091-0.661-0.125-0.222-0.035-0.446-0.061-0.67-0.08-0.223-0.018-0.449-0.028-0.676-0.031" fill="#333"/></g><g id="g802" transform="translate(295.86 519.72)"><path id="path804" d="m0 0 48.947 7.545" stroke="#333" stroke-miterlimit="10" stroke-width=".449" fill="none"/></g><g id="g806" transform="translate(296.61 514.83)"><path id="path808" d="m0 0 71.622 11.04" stroke="#333" stroke-miterlimit="10" stroke-width=".449" fill="none"/></g><g id="g810" transform="translate(297.28 510.49)"><path id="path812" d="m0 0 71.623 11.04" stroke="#333" stroke-miterlimit="10" stroke-width=".449" fill="none"/></g><g id="g814" transform="translate(297.95 506.15)"><path id="path816" d="m0 0 71.622 11.041" stroke="#333" stroke-miterlimit="10" stroke-width=".449" fill="none"/></g><g id="g818" transform="translate(298.62 501.81)"><path id="path820" d="m0 0 71.622 11.041" stroke="#333" stroke-miterlimit="10" stroke-width=".449" fill="none"/></g><g id="g822" transform="translate(299.29 497.46)"><path id="path824" d="m0 0 71.622 11.04" stroke="#333" stroke-miterlimit="10" stroke-width=".449" fill="none"/></g><g id="g826" transform="translate(321.45 488.05)"><path id="path828" d="m0 0-19.819-2.927-1.096 7.426 19.818 2.926 1.097-7.425z" fill-rule="evenodd" fill="#b8bcbc"/></g><g id="g830" transform="translate(344.92 491.5)"><path id="path832" d="m0 0-19.819-2.927-1.096 7.426 19.818 2.926 1.097-7.425z" fill-rule="evenodd" fill="#b8bcbc"/></g><g id="g834" transform="translate(676.37 411.44)"><path id="path836" d="m0 0c-3.338-17.371-10.261-35.923-22.793-54.903 9.791-11.501 15.722-19.782 15.043-22.318-4.663-17.416-126.85-70.638-151.86-77.192-40.17-10.529-31.373-47.578-31.373-47.578 8.059-39.502 56.601-19.686 56.601-19.686s202.63 94.172 206.9 129.62c1.897 15.798-32.101 53.437-72.52 92.06" fill="#1e7a82"/></g><g id="g838" transform="translate(667.2 503.87)"><path id="path840" d="m0 0c-10.196 34.407-51.522 36.559-51.522 36.559-4.293 21.505-20.261 30.435-32.679 32.561-81.576 13.979-118.42-20.074-148.72-20.734-49.376-1.075-57.089 12.179-57.089 12.179-7.375-21.273 3.146-38.861 3.146-38.861-16.16 0.687-20.454 12.414-20.454 12.414 6.533-31.609 21.438-52.282 39.017-65.768 1.306-1.126 3.756-3.104 7.353-5.451 14.432-9.417 47.234-24.708 97.798-14.152 0 0 0.408-57.51 6.439-71.683 1.75-4.114 5.398-6.534 10.029-7.802l0.007 0.152c0.555 13.112 10.492 23.339 22.197 22.843 11.703-0.497 20.744-11.53 20.189-24.643l-0.336-7.914c-0.555-13.113-10.494-23.34-22.198-22.843-3.033 0.128-5.885 0.97-8.44 2.367l-4.273-19.867 31.548-22.492 39.296 0.935 2.145 0.051c23.934 18.22 40.979 36.71 52.931 54.811 12.532 18.981 19.455 37.532 22.793 54.904 7.737 40.359-3.828 74.337-9.19 92.43" fill="#473d2d"/></g><g id="g842" transform="translate(422.2 432.09)"><path id="path844" d="m0 0-1.157-9.555c-0.425-3.519-3.618-6.026-7.13-5.599-3.513 0.429-6.014 3.625-5.587 7.144l1.157 9.554c0.426 3.519 3.617 6.024 7.129 5.599 3.513-0.427 6.016-3.625 5.588-7.143m105.47-108.86 4.273 19.866c2.555-1.396 5.406-2.238 8.44-2.367 11.704-0.496 21.643 9.731 22.198 22.844l0.336 7.914c0.555 13.112-8.486 24.146-20.189 24.643-11.705 0.496-21.642-9.731-22.197-22.843l-0.007-0.153c-4.631 1.269-8.279 3.689-10.029 7.802-6.031 14.174-6.439 71.683-6.439 71.683-50.564-10.555-83.366 4.736-97.798 14.153-2.019-13.196-8.022-52.237-8.468-52.683 0 0-0.407-2.245-1.02-5.748l-11.324-8.23c-8.99-7.124-12.691-8.25-11.27-13.441 0.102-0.377 1.487-2.619 1.788-2.867 6.356-5.252 8.912-5.384 15.794-6.948-0.373-2.847-0.655-5.346-0.789-7.221-0.438-6.12-0.519-14.35 0.154-23.2-0.145 3.392-0.105 5.358-0.105 5.358l4.751 0.876c13.944 1.804 24.562-0.407 27.503-14.231 1.246-9.66-9.045-18.961-22.99-20.765l-3.674-0.648c2.667-7.957 6.405-15.024 11.558-19.957 14.228-13.616 37.509-19.771 64.761-19.541v-16.66l88.017 5.376v10.752h37.57v24.679l-39.296-0.935-31.548 22.492z" fill="#ffdebd"/></g><g id="g846" transform="translate(423.26 338.44)"><path id="path848" d="m0 0c-2.941 13.824-13.56 16.035-27.504 14.23l-4.751-0.876s-0.04-1.965 0.105-5.357c0.15-3.52 0.499-8.576 1.301-14.601 1.073-8.064 4.058-14.832 4.058-14.832l0.127 0.023 3.674 0.647c13.945 1.805 24.235 11.106 22.99 20.766" fill="#da7976"/></g><g id="g850" transform="translate(416.61 439.23)"><path id="path852" d="m0 0c-3.512 0.426-6.703-2.08-7.129-5.598l-1.157-9.555c-0.427-3.518 2.074-6.715 5.587-7.143 3.511-0.427 6.705 2.08 7.13 5.598l1.157 9.555c0.428 3.519-2.075 6.716-5.588 7.143"/></g><g id="g854" transform="translate(601.72 283.45)"><path id="path856" d="m0 0c-5.719 3.817-108.95-10.241-129.88-19.354-26.158-11.394-34.209-64.617-34.209-64.617s-2.285-60.112-2.285-66.565v-132.91h69.4v-0.003h145.29c0.155 17.1 1.319 250.3-48.31 283.45" fill-rule="evenodd" fill="#228891"/></g><g id="g858" transform="translate(419.06 483.52)"><path id="path860" d="m0 0c-6.711-9.038-19.466-10.914-28.487-4.19-9.022 6.723-10.895 19.499-4.183 28.537l16.939 22.81c6.712 9.038 19.467 10.913 28.488 4.191 9.022-6.725 10.895-19.5 4.183-28.538l-16.94-22.81z" fill-rule="evenodd" fill="#ffdebd"/></g><g id="g862" transform="translate(435.95 498.04)"><path id="path864" d="m0 0c0.941-2.554 0.132-5.206-1.809-5.925l-10.807-4.002c-1.941-0.718-4.277 0.769-5.219 3.323-0.941 2.552-0.134 5.206 1.808 5.923l10.806 4.002c1.942 0.719 4.277-0.769 5.221-3.321" fill-rule="evenodd" fill="#ffdebd"/></g><g id="g866" transform="translate(522.9 204.54)"><path id="path868" d="m0 0c6.973 19.956-3.984 47.893-48.905 58.475-27.487 6.476-159.06 38.039-160.33 55.807-1.611 22.581 107.87 167.73 107.87 167.73l-32.199 25.804s-160.1-167.85-143.29-216.11c16.11-46.233 195.18-110.66 211.12-113.65 18.061-3.395 50.678-21.159 65.74 21.95" fill-rule="evenodd" fill="#228891"/></g><g id="g870" transform="translate(737.85 40.124)"><path id="path872" d="m0 0v101.88c0 67.7-36.16 136.98-113.27 136.98l-1.221-0.099c-93.468-7.14-126.18-69.177-126.18-136.88v-87.521c0-21.404-1.262-39.598 1.169-54.484h6.408v-0.003h232.75c0.931 10.55 0.34 23.721 0.34 40.128" fill-rule="evenodd" fill="#ce4c48"/></g><g id="g874" transform="translate(726.81 -.0029)"><path id="path876" d="m0 0c9.497 15.702 6.229 38.892 6.229 69.806v65.961c0 63.869-28.864 129.58-92.691 129.58h-4.302c-77.369-6.739-102.23-65.71-102.23-129.58v-24.706c0-57.285-1.961-91.141 5.89-111.06h187.1z" fill-rule="evenodd" fill="#333"/></g><g id="g878" transform="translate(672.32 .1631)"><path id="path880" d="m0 0v50.416c0 17.356-14.081 31.433-31.446 31.433-17.364 0-31.44-14.077-31.44-31.433v-50.416h62.886z" fill-rule="evenodd" fill="#4d4d4d"/></g><g id="g882" transform="translate(681.05)"><path id="path884" d="m0 0v50.516c0 17.392-14.076 31.496-31.437 31.496-17.369 0-31.449-14.104-31.449-31.496v-50.516h62.886z" fill-rule="evenodd" fill="#666"/></g></g></g></svg>
