<?xml version="1.0" encoding="UTF-8" standalone="no"?>
<svg id="svg2" xmlns:rdf="http://www.w3.org/1999/02/22-rdf-syntax-ns#" xmlns="http://www.w3.org/2000/svg" height="500" width="1100" version="1.1" xmlns:cc="http://creativecommons.org/ns#" xmlns:dc="http://purl.org/dc/elements/1.1/" viewBox="0 0 1100 500">
<g id="layer1" transform="translate(0 -552.36)">
<g id="g4425" transform="matrix(1.0982 0 0 1.0982 -99.397 122.01)">
<g id="g4376" fill-rule="evenodd" transform="matrix(.71324 0 0 .71324 154.41 171.89)">
<path id="path3553" d="m-25.755 624.59c19.42 31.592 52.775 58.911 99.035 74.287 56.747 18.862 147.7 16.559 175.21-28.782 4.8561-8.2884 5.0153-17.357 4.6397-20.909-0.18304-1.7303-0.60396-6.1249-2.7641-8.3765-0.16461-0.17158-0.24897-0.36083-0.43444-0.50539l1.5858 2.1785c-0.75471-1.6643-1.5797-1.8436-2.0987-2.9517-0.63634-1.3585-0.78791-3.1144-0.63789-4.1965 1.6146-11.645 17.504-13.379 26.344-10.835 33.927 9.7637 37.034 54.967 26.01 82.218-32.617 80.63-140.6 84.725-207.9 51.183-54.86-27.344-95.941-77.138-118.97-133.32z" fill="#f00"/>
<path id="path3562" d="m510.88 629.41c-19.42-31.59-52.77-58.91-99.03-74.29-56.75-18.86-147.7-16.56-175.21 28.79-4.8561 8.2884-5.0153 17.357-4.6397 20.909 0.18304 1.7303 0.60395 6.1249 2.7641 8.3765 0.16461 0.17157 0.24897 0.36082 0.43444 0.50539l-1.5858-2.1785c0.75472 1.6643 1.5797 1.8436 2.0987 2.9516 0.63633 1.3585 0.7879 3.1145 0.63789 4.1965-1.6146 11.645-17.504 13.379-26.344 10.835-33.927-9.7636-37.034-54.967-26.01-82.218 32.617-80.63 140.6-84.725 207.9-51.183 54.86 27.344 95.941 77.138 118.97 133.32z" fill="#000080"/>
<path id="path4370" d="m246.09 359.89c-31.592 19.42-58.911 52.775-74.287 99.035-18.862 56.747-16.559 147.7 28.782 175.21 8.2884 4.8561 17.357 5.0153 20.909 4.6397 1.7303-0.18304 6.1249-0.60396 8.3765-2.7641 0.17158-0.16461 0.36083-0.24897 0.50539-0.43444l-2.1785 1.5858c1.6643-0.75471 1.8436-1.5797 2.9517-2.0987 1.3585-0.63634 3.1144-0.78791 4.1965-0.63789 11.645 1.6146 13.379 17.504 10.835 26.344-9.7637 33.927-54.967 37.034-82.218 26.01-80.624-32.63-84.719-140.62-51.18-207.91 27.35-54.86 77.14-95.94 133.32-118.97z" fill="#008000"/>
<path id="path4372" d="m239.5 895.33c31.592-19.42 58.911-52.775 74.287-99.035 18.862-56.747 16.559-147.7-28.782-175.21-8.2884-4.8561-17.357-5.0153-20.909-4.6397-1.7303 0.18304-6.1249 0.60395-8.3765 2.7641-0.17157 0.16461-0.36082 0.24897-0.50539 0.43444l2.1785-1.5858c-1.6643 0.75472-1.8436 1.5797-2.9516 2.0987-1.3585 0.63633-3.1145 0.7879-4.1965 0.63789-11.645-1.6146-13.379-17.504-10.835-26.344 9.7636-33.927 54.967-37.034 82.218-26.01 80.63 32.617 84.725 140.6 51.183 207.9-27.344 54.86-77.138 95.941-133.32 118.97z" fill="#ff0"/>
</g>
<text id="text4398" style="word-spacing:0px;letter-spacing:0px" line-height="125%" font-size="75px" y="723.88928" x="457.48526" font-family="sans-serif" xml:space="preserve" fill="#4d4d4d"><tspan id="tspan4400" style="letter-spacing:17.25px" font-size="100px" dx="0" y="723.88928" x="457.48526" font-family="sans-serif" fill="#4d4d4d">Versatum</tspan></text>
</g>
</g>
</svg>
